<svg width="91" height="91" viewBox="0 0 91 91" fill="none" xmlns="http://www.w3.org/2000/svg">
<g id="brand-facebook-filled 1" clip-path="url(#clip0_28_91)">
<path id="Vector" d="M68.25 7.58331C69.1787 7.58344 70.0751 7.9244 70.7691 8.54153C71.4631 9.15865 71.9065 10.009 72.0151 10.9314L72.0417 11.375V26.5416C72.0415 27.4704 71.7006 28.3667 71.0835 29.0607C70.4663 29.7547 69.616 30.1981 68.6936 30.3068L68.25 30.3333H56.875V34.125H68.25C68.7898 34.1252 69.3232 34.2406 69.8148 34.4636C70.3064 34.6866 70.7446 35.0119 71.1004 35.4179C71.4561 35.8238 71.721 36.301 71.8774 36.8176C72.0339 37.3342 72.0782 37.8783 72.0075 38.4134L71.9317 38.838L68.14 54.0047C67.9519 54.7536 67.5395 55.4271 66.9581 55.9353C66.3768 56.4435 65.6541 56.7621 64.8868 56.8484L64.4583 56.875H56.875V79.625C56.8749 80.5537 56.5339 81.4501 55.9168 82.1441C55.2997 82.8381 54.4493 83.2814 53.527 83.3901L53.0833 83.4166H37.9167C36.988 83.4165 36.0916 83.0756 35.3976 82.4584C34.7036 81.8413 34.2602 80.9909 34.1515 80.0686L34.125 79.625V56.875H26.5417C25.613 56.8749 24.7166 56.5339 24.0226 55.9168C23.3286 55.2996 22.8852 54.4493 22.7765 53.5269L22.75 53.0833V37.9166C22.7501 36.9879 23.0911 36.0916 23.7082 35.3976C24.3253 34.7036 25.1757 34.2602 26.098 34.1515L26.5417 34.125H34.125V30.3333C34.1248 24.4472 36.4059 18.7901 40.4892 14.5506C44.5724 10.3111 50.1399 7.81921 56.0219 7.59848L56.875 7.58331H68.25Z" fill="black"/>
</g>
<defs>
<clipPath id="clip0_28_91">
<rect width="91" height="91" fill="white"/>
</clipPath>
</defs>
</svg>
