<svg width="91" height="91" viewBox="0 0 91 91" fill="none" xmlns="http://www.w3.org/2000/svg">
<g id="brand-linkedin 1" clip-path="url(#clip0_28_102)">
<path id="Vector" d="M15.1667 22.75C15.1667 20.7388 15.9657 18.8099 17.3879 17.3878C18.81 15.9656 20.7389 15.1667 22.7501 15.1667H68.2501C70.2613 15.1667 72.1902 15.9656 73.6123 17.3878C75.0345 18.8099 75.8334 20.7388 75.8334 22.75V68.25C75.8334 70.2612 75.0345 72.1901 73.6123 73.6122C72.1902 75.0344 70.2613 75.8334 68.2501 75.8334H22.7501C20.7389 75.8334 18.81 75.0344 17.3879 73.6122C15.9657 72.1901 15.1667 70.2612 15.1667 68.25V22.75Z" stroke="black" stroke-width="2" stroke-linecap="round" stroke-linejoin="round"/>
<path id="Vector_2" d="M30.3333 41.7083V60.6666" stroke="black" stroke-width="2" stroke-linecap="round" stroke-linejoin="round"/>
<path id="Vector_3" d="M30.3333 30.3333V30.3712" stroke="black" stroke-width="2" stroke-linecap="round" stroke-linejoin="round"/>
<path id="Vector_4" d="M45.5 60.6666V41.7083" stroke="black" stroke-width="2" stroke-linecap="round" stroke-linejoin="round"/>
<path id="Vector_5" d="M60.6667 60.6666V49.2916C60.6667 47.2804 59.8677 45.3516 58.4456 43.9294C57.0234 42.5073 55.0946 41.7083 53.0833 41.7083C51.0721 41.7083 49.1433 42.5073 47.7211 43.9294C46.299 45.3516 45.5 47.2804 45.5 49.2916" stroke="black" stroke-width="2" stroke-linecap="round" stroke-linejoin="round"/>
</g>
<defs>
<clipPath id="clip0_28_102">
<rect width="91" height="91" fill="white"/>
</clipPath>
</defs>
</svg>
