<svg width="91" height="91" viewBox="0 0 91 91" fill="none" xmlns="http://www.w3.org/2000/svg">
<g id="brand-twitter-filled 1" clip-path="url(#clip0_28_94)">
<path id="Vector" d="M53.3032 12.9296C46.4517 15.8378 41.9472 22.2305 41.7159 29.5371L41.7083 30.2272L40.7869 30.14C31.7173 29.12 23.732 24.407 18.2493 16.7516C17.878 16.2328 17.3818 15.816 16.8067 15.5399C16.2316 15.2638 15.5961 15.1373 14.959 15.172C14.322 15.2068 13.704 15.4018 13.1624 15.7389C12.6207 16.0759 12.1729 16.5443 11.8603 17.1004L11.4925 17.8057L11.3067 18.181C8.58052 23.8117 6.79464 30.6556 7.4506 37.9091L7.56435 38.9442C8.63739 47.5248 13.2519 54.9261 21.8931 60.4771L22.549 60.8828L22.2419 61.0458C17.2559 63.5597 12.6945 64.6555 7.73119 64.4583C3.72719 64.3067 2.24844 69.6605 5.7671 71.5791C19.4095 79.0145 34.0567 81.3085 46.6868 77.6458C62.0809 73.1716 73.8048 61.6335 78.2903 45.6706L78.7719 43.7938C79.6743 40.0286 80.1824 36.1877 80.2923 32.3278L80.3037 31.0689L81.7938 28.1152L83.4621 24.8468L84.2736 23.2012L84.721 22.2647C85.7258 20.1224 86.45 18.3479 86.8974 16.8426L86.9505 16.6303L86.9808 16.562C87.815 14.3135 86.3514 11.4129 83.4128 11.4129L82.9503 11.4395C82.6507 11.4763 82.3567 11.5488 82.0744 11.6556L81.7483 11.7997C80.6662 12.3252 79.5518 12.7811 78.4116 13.1647L77.0618 13.6007L76.0343 13.904L73.1071 14.7155C68.0414 10.4764 61.1861 9.96071 54.1033 12.6149L53.3032 12.9296Z" fill="black"/>
</g>
<defs>
<clipPath id="clip0_28_94">
<rect width="91" height="91" fill="white"/>
</clipPath>
</defs>
</svg>
